# xmcd
#
# Track frame offsets:
#	150
#	18366
#	38460
#	72226
#	95760
#	118989
#	139641
#	163631
#	184625
#
# Disc length: 2663 seconds
#
# Revision: 1
# Processed by: cddbd v1.5.1PL2 Copyright (c) Steve Scherf et al.
# Submitted via: EasyCDDAExtractor 9.0.0.1
#
DISCID=730a6509
DTITLE=Saxon - The Mayfair Glasgow 07-04-90 Disc 2
DYEAR=1990
DGENRE=Hard Rock
TTITLE0=Ride Like The Wind
TTITLE1=Princess Of The Night
TTITLE2=Wheels Of Steel
TTITLE3=Denim and Leather
TTITLE4=Strong Arm Of The Law
TTITLE5=Motorcycle Man
TTITLE6=Northern Lady
TTITLE7=Back On The Streets
TTITLE8=Alice Cooper Track
EXTD=
EXTT0=
EXTT1=
EXTT2=
EXTT3=
EXTT4=
EXTT5=
EXTT6=
EXTT7=
EXTT8=
PLAYORDER=
